<?xml version="1.0" encoding="UTF-8" standalone="no"?>
<svg viewBox="0 0 383.40625 302.33893"   widh="200"
  height="200" xmlns="http://www.w3.org/2000/svg" xmlns:xlink="http://www.w3.org/1999/xlink">
<defs>
<filter height="1.2833" id="filter4588" width="1.28464" x="-.14232" y="-.14165">
<feGaussianBlur stdDeviation="2.42088"/>
</filter>
<linearGradient id="linearGradient4294">
<stop offset="0" stop-color="#fff"/>
<stop offset="1" stop-color="#ffaa6e"/>
</linearGradient>
<linearGradient gradientTransform="matrix(8.11975,-2.44005,2.45608,8.17309,1296.9259,-556.54842)" gradientUnits="userSpaceOnUse" id="linearGradient4932" x1="-13.08968" x2="-9.56207" xlink:href="#linearGradient4294" y1="-.49584" y2="8.92995"/>
<linearGradient gradientTransform="matrix(-8.11975,-2.44005,-2.45608,8.17309,1311.0951,-556.56612)" gradientUnits="userSpaceOnUse" id="linearGradient4934" x1="-13.08968" x2="-9.56207" xlink:href="#linearGradient4294" y1="-.49584" y2="8.92995"/>
<radialGradient cx="-6" cy="37.75" gradientTransform="matrix(1,0,0,.26786,0,27.63839)" gradientUnits="userSpaceOnUse" id="radialGradient4930" r="14">
<stop offset="0"/>
<stop offset="1" stop-opacity="0"/>
</radialGradient>
</defs>
<g transform="translate(-1117.3125,555.80711)">
<path d="m8,37.75c0,2.07107-6.26801,3.75-14,3.75s-14-1.67893-14-3.75 6.26801-3.75 14-3.75 14,1.67893 14,3.75z" fill="url(#radialGradient4930)" fill-rule="evenodd" opacity=".48454" transform="matrix(11.61542,0,0,11.44332,1381.7425,-728.36591)"/>
<path d="m1434.9036-420.36036c6.6431,2.53847 11.2686,3.4716 13.8099,6.07825-3.7134,3.86743-14.3166,4.6773-14.999,6.61059-.7482,2.11969 11.0337,3.47309 14.2777,6.4795-2.5988,3.26032-16.5471,7.0029-15.9336,9.26148 .5053,1.86018 6.6537,1.5556 10.3057,3.07053-3.3816,3.17974-7.9164,6.19905-11.032,8.82904-1.9987,1.68713-2.7162,2.34557-3.2564,3.28588-.6613,1.15125 6.9045,1.77568 7.5484,2.26493-23.0784,21.46752-43.6109,42.19618-57.7993,49.25696-8.2726,4.11678-45.8703,11.47204-53.4704,14.60197s-12.3294,4.28889-17.998,4.23333c-7.406-.0727-20.339-3.80111-26.2402-5.25351-14.0253-3.45197-25.6131-4.39174-38.7595-8.18722-19.1503-5.52884-37.4621-24.60058-62.0139-46.57942-4.2027-3.88416-4.9596-5.00773-7.9135-8.36131-.1215-.13792 9.1805-1.00722 8.1543-1.88474-3.0433-2.60208-9.2027-8.00168-13.5213-11.32407 7.26-3.44096 10.414-1.83471 9.8461-3.58937-.4444-1.37296-8.541-4.44865-16.0264-9.3603 7.5748-3.32222 14.5116-4.25847 14.1681-5.68899-.7678-3.19777-10.6189-3.00225-15.468-7.48475 2.789-1.46768 4.3502-2.74711 14.7238-5.65346 2.2737-.63702 7.7224-2.75124 10.7264-4.51883-4.2754-31.66382 54.3333-92.76109 120.3512-94.27855s111.3869,50.38719 117.3404,88.74725c.96,6.18549.431,5.89439 13.1795,9.44481z" fill="#684444" fill-rule="evenodd"/>
<g transform="matrix(-1,0,0,1,2611.777,64.61525)">
<path d="m1274.0945-561.65556c-15.7676,15.28593-25.8044,20.42393-34.9075,29.19802-17.1814,16.56043-24.9307,24.70197-40.2508-6.00365-4.8084-9.63743-7.2256-22.6738-8.7886-31.99099-2.6985-16.08532-3.3112-19.66545-3.3452-49.97018 19.4701,1.89059 32.6683,5.73306 47.6526,12.13287 12.7162,5.43101 25.0198,15.04472 43.8129,42.46085z" fill="#684444" fill-rule="evenodd"/>
<path d="m1270.1766-559.9487c-10.0002,16.31952-15.4482,22.23253-29.0267,29.82614-19.205,10.74014-20.0364,18.43213-34.8148-1.32432-8.2543-11.03488-13.0716-33.85298-14.3229-45.02057-2.8669-25.58652-1.2711-16.38049-2.4061-40.19491 15.6373,2.48387 19.3855,2.23 40.6696,9.99424 14.1554,5.16383 19.9764,11.10454 32.8785,26.53186 12.6291,15.10096 10.955,13.76992 7.0224,20.18756z" fill="#f7941d" fill-rule="evenodd"/>
</g>
<path d="m1270.3385-497.02261c-15.7676,15.28593-25.8044,20.42393-34.9075,29.19802-17.1814,16.56043-24.9307,24.70197-40.2508-6.00365-4.8084-9.63743-7.2256-22.6738-8.7886-31.99099-2.6985-16.08532-3.3112-19.66545-3.3452-49.97018 19.4701,1.89059 32.6683,5.73306 47.6526,12.13287 12.7162,5.43101 25.0198,15.04472 43.8129,42.46085z" fill="#684444" fill-rule="evenodd"/>
<path d="m1266.4206-495.31575c-10.0002,16.31952-15.4482,22.23253-29.0267,29.82614-19.205,10.74014-20.0364,18.43213-34.8148-1.32432-8.2543-11.03488-13.0716-33.85298-14.3229-45.02057-2.8669-25.58652-1.2711-16.38049-2.4061-40.19491 15.6373,2.48387 19.3855,2.23 40.6696,9.99424 14.1554,5.16383 19.9764,11.10454 32.8785,26.53186 12.6291,15.10096 10.955,13.76992 7.0224,20.18756z" fill="#f7941d" fill-rule="evenodd"/>
<path d="m1223.4196-431.5903c-6.4432-21.44089-29.1799-69.89036-27.1081-97.40305 95.8188,34.15227 55.9888,87.46654 27.1081,97.40305z" fill="url(#linearGradient4932)" fill-rule="evenodd"/>
<path d="m1384.6014-431.608c6.4432-21.44089 29.1799-69.89036 27.1081-97.40305-95.8188,34.15227-55.9888,87.46654-27.1081,97.40305z" fill="url(#linearGradient4934)" fill-rule="evenodd"/>
<path d="m1430.1211-419.33136c5.4954,2.08076 11.7398,2.61443 14.039,5.1265-3.5313,2.5389-12.8554,1.86516-13.8278,6.46215-.7661,3.62153 9.897,4.44389 12.832,6.51862-2.5229,2.59362-12.3374,4.88863-14.6733,8.92544-1.7933,3.09906 5.7624,2.87018 9.0666,4.33015-3.1453,2.15037-6.2186,4.69452-9.0374,7.22909-1.8083,1.62592-3.5118,3.2479-5.0624,4.75945-.739.72035 7.0366,1.87973 7.6191,2.35122-21.7383,20.68865-46.1635,43.10304-59.1722,47.71401-7.9325,2.8117-42.6707,9.66911-49.5469,12.68549s-10.1547,3.60055-15.2834,3.547c-6.7006-.07-13.1811-1.60152-18.5202-3.00123-12.6895-3.32673-32.6512-7.21955-44.7613-9.95833-17.4979-3.95723-45.7361-28.74999-67.7778-50.6626 5.3497-1.08802 7.9378-1.63713 7.9253-2.0356-.01-.17681-3.0302-2.97596-3.9587-3.82164-2.7534-2.50767-6.1262-5.12078-10.0335-8.32262 6.5685-1.9451 9.2409-1.10068 8.8562-4.00755-.2889-2.18374-8.5159-5.90188-14.4302-9.26431 6.4243-2.56187 13.9812-3.4395 12.6973-6.51667-1.727-4.13891-8.94-4.25055-13.9947-6.37301 2.5233-1.41442 4.7246-1.9365 14.7776-5.31906 2.0371-.68545 6.3648-2.08465 9.0827-3.7881-3.9687-34.61617 56.3558-93.49291 117.4587-93.49289s103.2955,40.86888 114.4017,84.79611c2.1988,8.69678-.2107,8.69678 11.3236,12.11838z" fill="#f7941d" fill-rule="evenodd"/>
<path d="m177.14286,592.36218c0,31.55913-25.58373,57.14286-57.14286,57.14286s-57.14286-25.58373-57.14286-57.14286 25.58373-57.14285 57.14286-57.14285 57.14286,25.58372 57.14286,57.14285z" fill="#fff" transform="matrix(.55192,0,0,.55192,1284.46843,-762.48003)"/>
<path d="m177.14286,592.36218c0,31.55913-25.58373,57.14286-57.14286,57.14286s-57.14286-25.58373-57.14286-57.14286 25.58373-57.14285 57.14286-57.14285 57.14286,25.58372 57.14286,57.14285z" stroke="#000" stroke-width=".1" transform="matrix(.36933,0,0,.42069,1305.98718,-685.54022)"/>
<path d="m177.14286,592.36218c0,31.55913-25.58373,57.14286-57.14286,57.14286s-57.14286-25.58373-57.14286-57.14286 25.58373-57.14285 57.14286-57.14285 57.14286,25.58372 57.14286,57.14285z" fill="#fff" stroke="#000" stroke-width=".1" transform="matrix(.13829,0,0,.13829,1336.55574,-530.43985)"/>
<path d="m177.14286,592.36218c0,31.55913-25.58373,57.14286-57.14286,57.14286s-57.14286-25.58373-57.14286-57.14286 25.58373-57.14285 57.14286-57.14285 57.14286,25.58372 57.14286,57.14285z" fill="#fff" transform="matrix(.55192,0,0,.55192,1194.83113,-762.48003)"/>
<path d="m177.14286,592.36218c0,31.55913-25.58373,57.14286-57.14286,57.14286s-57.14286-25.58373-57.14286-57.14286 25.58373-57.14285 57.14286-57.14285 57.14286,25.58372 57.14286,57.14285z" stroke="#000" stroke-width=".1" transform="matrix(.36933,0,0,.42069,1216.34988,-685.54022)"/>
<path d="m177.14286,592.36218c0,31.55913-25.58373,57.14286-57.14286,57.14286s-57.14286-25.58373-57.14286-57.14286 25.58373-57.14285 57.14286-57.14285 57.14286,25.58372 57.14286,57.14285z" fill="#fff" stroke="#000" stroke-width=".1" transform="matrix(.13829,0,0,.13829,1246.91844,-530.43985)"/>
<path d="m1248.7711-352.94285c0,0 2.3675,10.22342 13.3339,13.87757 10.7147,3.57029 15.9739,3.51851 26.494.0823 11.3495-3.70715 14.7555-25.49045 19.0484-25.59307 3.8679-.0925 8.892,21.87457 18.7462,25.51077 10.0121,3.69444 15.4412,2.65177 26.012,0s12.2046-9.0514 14.8601-16.59198" fill="none" stroke="#684444" stroke-width="4.40862"/>
<path d="m1232.2246-408.12658c0,0-41.3512-23.52087-68.2864-22.00339s-35.2813,6.82864-35.2813,6.82864" fill="none" stroke="#684444" stroke-width="1.5"/>
<path d="m1228.796-391.59194c0,0-38.3954-14.36488-62.711-11.42976s-35.8898,12.57132-35.8898,12.57132" fill="none" stroke="#684444" stroke-width="1.5"/>
<path d="m1197.4417-380.05328c0,0-32.8197,1.53588-42.4893,4.17306-25.0384,6.82864-37.1782,16.69224-37.1782,16.69224" fill="none" stroke="#684444" stroke-width="1.5"/>
<path d="m1238.4844-357.12524c0,0-30.9055,6.2937-39.3261,10.31436-16.9384,8.08758-16.6362,9.57467-31.6163,25.39388" fill="none" stroke="#684444" stroke-width="1.5"/>
<path d="m1224.8752-371.41985c0,0-28.0733,1.51748-37.9369,6.0699s-27.6939,10.24296-33.3845,20.48592" fill="none" stroke="#684444" stroke-width="1.5"/>
<path d="m1307.0339-363.69456c-2.6068-.0518-5.1438.11013-8.6606-2.36229s-5.5646-3.62103-7.4926-8.04574-6.5964-13.85875-2.4605-17.8051 32.0953-3.01819 38.0484,0-1.0033,14.40375-2.6734,17.47108-4.2438,5.95839-7.3085,8.58066-6.8712,2.21267-9.4528,2.16139z" fill="#f00"/>
<path d="m1318.5342-397.64808c-6.3899-8.8087-36.3212,1.79989-32.0813-6.05015 4.1358-5.59557 32.0953-4.27953 38.0484,0s-1.0033,20.42321-2.6734,24.77242-4.2438,8.44845-7.3085,12.16659 10.1114-22.48437 4.0148-30.88886z" fill="#fff" fill-opacity=".58371" filter="url(#filter4588)" transform="matrix(1,0,0,.70526,0,-107.1941)"/>
<path d="m1377.8238-407.57821c0,0 41.3512-23.52087 68.2864-22.00339s35.2813,6.82864 35.2813,6.82864" fill="none" stroke="#684444" stroke-width="1.5"/>
<path d="m1401.6398-395.33563c0,0 38.3954-14.36488 62.711-11.42976s35.8898,12.57132 35.8898,12.57132" fill="none" stroke="#684444" stroke-width="1.5"/>
<path d="m1405.0956-383.26047c0,0 32.8196,1.53588 42.4893,4.17306 25.0383,6.82864 37.1781,16.69224 37.1781,16.69224" fill="none" stroke="#684444" stroke-width="1.5"/>
<path d="m1387.1228-359.79592c0,0 30.9055,6.2937 39.3261,10.31436 16.9384,8.08758 16.6362,9.57467 31.6163,25.39388" fill="none" stroke="#684444" stroke-width="1.5"/>
<path d="m1379.2716-373.55402c0,0 28.0733,1.51748 37.9368,6.0699s27.694,10.24296 33.3845,20.48592" fill="none" stroke="#684444" stroke-width="1.5"/>
</g>
</svg>
