<svg xmlns:rdf="http://www.w3.org/1999/02/22-rdf-syntax-ns#" xmlns:svg="http://www.w3.org/2000/svg" xmlns:inkscape="http://www.inkscape.org/namespaces/inkscape" xmlns:sodipodi="http://sodipodi.sourceforge.net/DTD/sodipodi-0.dtd" xmlns:cc="http://creativecommons.org/ns#" xmlns:dc="http://purl.org/dc/elements/1.1/" xmlns="http://www.w3.org/2000/svg" xmlns:xlink="http://www.w3.org/1999/xlink" version="1.1" x="0px" y="0px" viewBox="0 0 800 1000" enable-background="new 0 0 800 800" xml:space="preserve"><g><path fill="#000000" d="M400,33.5C197.913,33.5,33.5,197.906,33.5,400c0,202.087,164.413,366.5,366.5,366.5   S766.5,602.087,766.5,400C766.5,197.906,602.087,33.5,400,33.5z M400,63.393c22.975,0,45.416,2.328,67.106,6.736L244.089,293.14   V101.898c0-0.022-0.007-0.051-0.007-0.073C290.731,77.325,343.753,63.393,400,63.393z M335.418,244.089h129.164l91.329,91.322   v129.163l-91.329,91.329H335.418l-91.33-91.329V335.411L335.418,244.089z M214.195,119.501v315.179L78.968,299.46   c-0.059-0.058-0.124-0.095-0.175-0.146C102.132,225.011,150.606,161.766,214.195,119.501z M101.826,555.918   C77.333,509.269,63.393,456.239,63.393,400c0-22.975,2.328-45.417,6.736-67.114l148.438,148.438c0,0.008,0.014,0.015,0.014,0.022   l74.566,74.558H101.906C101.876,555.903,101.854,555.918,101.826,555.918z M299.321,721.207   c-74.31-23.339-137.556-71.821-179.82-135.41h315.194L299.467,721.032C299.409,721.083,299.373,721.149,299.321,721.207z    M400,736.606c-22.975,0-45.409-2.335-67.1-6.736l223.011-223.024v191.241c0,0.029,0.007,0.059,0.007,0.087   C509.269,722.667,456.247,736.606,400,736.606z M585.805,680.491V365.304L721.032,500.54c0.059,0.051,0.124,0.087,0.175,0.146   C697.868,574.981,649.394,638.228,585.805,680.491z M698.175,244.082c24.492,46.65,38.432,99.671,38.432,155.918   c0,22.975-2.328,45.409-6.736,67.1L581.455,318.684c-0.022-0.015-0.044-0.037-0.059-0.051l-74.544-74.543h191.241   C698.123,244.089,698.146,244.082,698.175,244.082z M365.312,214.195L500.54,78.968c0.058-0.059,0.095-0.125,0.146-0.183   c74.303,23.339,137.549,71.821,179.813,135.41H365.312z"/></g><text x="0" y="815" fill="#000000" font-size="5px" font-weight="bold" font-family="'Helvetica Neue', Helvetica, Arial-Unicode, Arial, Sans-serif">Created by abderraouf omara</text><text x="0" y="820" fill="#000000" font-size="5px" font-weight="bold" font-family="'Helvetica Neue', Helvetica, Arial-Unicode, Arial, Sans-serif">from the Noun Project</text></svg>