<svg xmlns="http://www.w3.org/2000/svg" xmlns:xlink="http://www.w3.org/1999/xlink" version="1.1" x="0px" y="0px" viewBox="0 0 100 125" enable-background="new 0 0 100 100" xml:space="preserve"><g><path d="M94.4,8.3c0.2,2.5,0.5,4.5,0.5,6.5c0,4,0,8-0.1,12c0,1.6-0.3,3.2-0.4,4.8c-0.1,0.9,0,1.8,0,2.7c0,1.3,0.1,2.6,0.1,3.9   c0,1.1,0.1,2.1,0.1,3.2c-0.1,1.7-0.1,3.4-0.4,5c-0.2,1.5-3.3,2.6-4.6,1.8c-0.9-0.6-0.9-1.5-0.7-2.2c0.4-1.4,0.2-2.7-0.2-4.1   c-0.1-0.2-0.2-0.4-0.2-0.7c0-3.3,0.1-6.6,0.1-9.9c0-2.8-0.1-5.7-0.1-8.5c0-3.8,0-7.5,0.2-11.3c0-0.7,0.8-1.7,1.5-2.1   C91.5,9,92.8,8.8,94.4,8.3z"/><path d="M54.5,8.9c0.5,1.5,1.2,2.9,1.6,4.5c0.5,2.5,0.8,5,1.2,7.5c0.3,2,0.6,3.9,1,5.9c0.8,3.8,1.1,7.7,0.8,11.6   C58.8,41.2,58.4,44,58,47c-0.7,0.3-1.5,0.7-2.3,1.1c-1.6,0.6-2.5-0.1-2.5-1.8c0-4.4,0.1-8.8,0-13.1c-0.1-2.5-0.8-5-1.1-7.5   c-0.4-3.8-0.8-7.6-1-11.4c-0.1-1.3,0.4-2.7,0.8-4C52.2,9.2,53.1,8.9,54.5,8.9z"/><path d="M40.5,11.9c-2.6,0.5-5.2,0.9-7.9,1.4c-0.4,0.1-0.8,0.2-1.1,0.2c-4.4,0.2-8.9,0.5-13.3,0.6c-1.1,0-2.2-0.3-3.3-0.6   c-1.7-0.5-3.6-0.4-5.4-0.2C7.9,13.6,7,13.1,6.1,12c-0.8-0.9-0.6-1.7,0.5-2.1C7,9.7,7.4,9.6,7.9,9.6c2.4-0.3,4.9-0.7,7.3-0.9   c2.5-0.2,5.1-0.1,7.6-0.4C29.5,7.4,36.3,7.8,43,8.2c0.7,0,1.4,0,2.1,0.2c0.8,0.2,1.2,0.8,0.7,1.5c-0.8,1.4-1.7,2.6-3.6,2.3   c-0.5-0.1-1.1,0-1.6,0C40.6,12.1,40.6,12,40.5,11.9z"/><path d="M82,8.7c0.3,2.5,0.9,4.8,0.7,7.2c-0.4,4.6,0.2,9,0.4,13.5c0.2,4.5,0.1,9,0.1,13.6c0,1.5-2.1,3-3.6,2.6   c-1-0.3-1.7-1-1.7-2.2c0.1-2,0.2-4,0.1-6c-0.2-4.3-0.5-8.6-0.7-12.8c-0.1-1.4,0-2.9,0-4.4c0-1.2,0.1-2.5,0.2-3.7   c0.2-1.8,0.3-3.7,0.7-5.4C78.7,9.2,79.3,8.9,82,8.7z"/><path d="M31.8,45.8c-1.2,0.1-2.4,0.1-3.7,0.2c-0.3,0-0.6,0.1-0.9,0c-6.6-1.3-13.2-1.5-19.8-1.3c-1.6,0.1-2.3-0.5-2.4-1.8   c0-1.1,0.3-1.9,1.5-1.9c2.2-0.2,4.5-0.6,6.6-0.4c5.4,0.6,10.7,0.3,16.1-0.1c2.7-0.2,5.4-0.4,8-0.4c1.4,0,2.9,0.1,4.3,0.4   c0.8,0.1,1.8,0.5,2.1,1.1c0.5,1.1-0.9,1.1-1.4,1.7c-1.7,2-4.1,1.9-6.3,2.4c-1.3,0.3-2.7,0.2-4.1,0.3C31.8,45.8,31.8,45.8,31.8,45.8   z"/><path d="M16.3,91.7c-2,0.6-3.5,0-4.9-0.8c-1.6-8.3-2.3-16.7-1.3-25.2c0.3-2.7,0.1-5.5,0.1-8.3c0-1.3-0.3-2.8,1.2-4.1   c0.4,0.7,1,1.2,1.1,1.9c0.5,2.2,1.1,4.3,1.3,6.5c0.4,5.4,0.6,10.9,1,16.3c0.2,2.2,0.8,4.4,1,6.6C16.1,87,16.1,89.3,16.3,91.7z"/><path d="M53,91.6c-0.1-0.4-0.4-1-0.5-1.6c-0.1-0.8,0.2-1.3,1-1.5c0.1,0,0.1,0,0.2-0.1c3.1-0.4,6.2-0.9,9.3-1.2   c3.5-0.4,7-0.6,10.5-0.8c2.7-0.1,5.4-0.2,8-0.2c1.8,0,3.5,0.3,5.3,0.3c2.6,0,5.1,0.7,7.6,1.8c-1.1,1.8-2.7,2.2-4.4,2.3   c-3.5,0.2-7,0.1-10.6,0.2c-3.2,0.1-6.4,0.4-9.6,0.5c-1.4,0.1-2.8,0.2-4.1-0.1c-3.8-0.9-7.5-0.3-11.2,0.4c-0.5,0.1-0.9,0.1-1.4,0.2   C53.3,91.7,53.3,91.7,53,91.6z"/><path d="M67.3,8.3c1.7,11.9,3.1,23.8,3.2,36.2c-0.9,0.1-1.7,0.4-2.5,0.4c-1.4,0-2.2-0.9-2.2-2.3c-0.2-4.7-0.4-9.3-0.6-14   c-0.2-5.6-0.6-11.2-1.6-16.7C63.1,9,64.2,8,67.3,8.3z"/><path d="M25.6,53.9c1.6,8.7,2.3,17.3,2.6,26c0.1,2.6-0.1,5.2-0.2,7.8c0,2.6-0.8,3.4-3.6,3.8c-0.6-1.2-0.9-2.5-0.8-3.9   c0.2-2.6,0.2-5.2,0.1-7.8c-0.2-5.7-0.6-11.5-0.8-17.2c-0.1-1.8-0.2-3.7-0.2-5.5C22.8,54.9,23.2,54.5,25.6,53.9z"/><path d="M5.5,30.8c1.4-0.4,2.7-1,4.1-1.1c11.1-1,22.2-2.3,33.3-1.5c0.2,0,0.4,0.1,0.6,0.1c0.3,2-0.5,3.4-2.3,3.7   c-0.8,0.1-1.7,0.1-2.5,0.1c-5.2-0.2-10.4,0.3-15.6,0.8c-4.7,0.4-9.4,0.4-14,0.6c-0.3,0-0.7,0-0.9-0.1c-0.9-0.6-1.8-1.3-2.7-2   C5.5,31.2,5.5,31,5.5,30.8z"/><path d="M53.9,81.7c-0.3-2.3,0.1-2.9,2.1-3.2c4.7-0.7,9.4-1.5,14.1-1.9c3.5-0.3,7.1-0.1,10.6-0.1c3.1,0,6.3,0,9.4,0.1   c1.1,0,2.1,0.1,3.2,0.3c0.7,0.1,1,0.8,0.6,1.4c-0.6,0.9-1.3,1.7-2.5,1.7c-3.7,0.1-7.3,0.2-11,0.3c-3.5,0.1-7,0.2-10.6,0.4   c-1.6,0.1-3.2,0.3-4.8,0.4c-1,0.1-2,0-3,0.3C59.4,82.1,56.7,82.2,53.9,81.7z"/><path d="M7,21.2c-0.1-2.2-0.1-2.3,1.7-2.5c2.4-0.3,4.7-0.5,7.1-0.7c8.4-0.8,16.8-1,25.3-0.5c1.5,0.1,3,0.5,4.4,0.7   c-0.5,2.5-1.4,3.3-3.6,3.3c-3,0-6-0.2-9-0.2c-3.4,0-6.7,0.2-10.1,0.3c-4.5,0.1-9,1-13.5,0.3c-0.4-0.1-0.8-0.1-1.1-0.2   C7.8,21.5,7.4,21.3,7,21.2z"/><path d="M93.7,56.2c-0.8,0.5-1.3,0.9-1.8,1.1c-4.7,1.6-9.5,2.6-14.4,2.8c-3.8,0.2-7.7,0.3-11.5,0.5c-0.1,0-0.2,0-0.2,0   c-3.9,0-7.8,0-11.8,0c-0.9-1.9-0.6-3,1.6-3.5c2.6-0.6,5.2-1.4,7.9-0.8c0.5,0.1,1.1,0.1,1.6,0.1c4-0.1,8-0.3,11.9-0.4   c0.8,0,1.7,0,2.5-0.1c1.9-0.1,3.8-0.1,5.7-0.2c2.2-0.1,4.4-0.1,6.7-0.2C92.5,55.6,92.9,55.9,93.7,56.2z"/><path d="M36.1,54.2c0.2,3.8,0.4,7.5,0.7,11.1c0.1,2.1,0.4,4.1,0.5,6.2c0.2,3.2,0.3,6.4,0.5,9.6c0.1,1.8,0.2,3.7,0.3,5.5   c0.2,2.3-0.5,4.3-2.7,5.4c-0.5,0.2-1.1,0.1-1.7,0.2c0-0.5-0.3-1.1-0.1-1.5c0.7-1.4,0.7-2.8,0.6-4.2c-0.1-3,0-6-0.1-9   c-0.2-3.5-0.2-7.1-1-10.5c-0.7-2.9-0.8-5.7-1-8.6C31.8,55.5,32.8,54.4,36.1,54.2z"/><path d="M45.5,55.5c0.1,0.5,0.4,1,0.4,1.5c0.2,3.2,0.4,6.4,0.5,9.6c0,0.8-0.1,1.7,0.1,2.5c0.7,2.9,0.6,5.9,0.5,8.9   c-0.1,3.8,0,7.7,0.1,11.5c0,1.1-0.2,1.8-1.4,2c-1.5,0.2-1.8,0.1-2.5-1.3c-1-2.1-1.2-4.2-0.9-6.4c0.4-3.3,0.9-6.5,1.3-9.8   c0-0.2,0-0.3,0-0.5c-1.2-4.5,0.1-9.2-0.5-13.7c-0.1-1,0.1-2,0.3-2.9C43.8,56,44.4,55.4,45.5,55.5z"/><path d="M94.3,66.7c-1.7,1.3-3.6,2.2-5.8,2.2c-3.1,0-6.1,0.1-9.2,0.2c-0.5,0-1.1,0-1.6,0.2c-4.8,1.5-9.7,1.2-14.6,1.1   c-3-0.1-6.1,0.3-9.2,0.4c-0.7-1.7-0.3-2.7,1.6-3.1c2.4-0.4,4.9-0.4,7.3-0.6c5.3-0.4,10.5-0.9,15.8-1.2c2.4-0.2,4.9-0.1,7.4-0.2   c2.1-0.1,4.3-0.1,6.4-0.2C93.3,65.4,94.1,65.5,94.3,66.7z"/></g></svg>
