<svg xmlns="http://www.w3.org/2000/svg" xmlns:xlink="http://www.w3.org/1999/xlink" version="1.1" x="0px" y="0px" width="100" height="125" viewBox="0 0 100 125" style="enable-background:new 0 0 100 100;" xml:space="preserve"><style type="text/css">
	.st0{stroke:#000000;stroke-linecap:round;stroke-linejoin:round;stroke-miterlimit:10;}
</style><path d="M95.9,62h-2.6c0.9-3.3,1.5-6.8,1.5-10.3h0c0,0,0,0,0,0c0,0,0,0,0,0l-0.6-40.8c0-1.2-0.6-2.2-1.6-2.8c-1-0.6-2.2-0.7-3.2-0.2  L71.5,16c-6.5-3.3-13.9-5-21.4-5c-7.5,0-14.9,1.8-21.5,5L10.9,7.8C9.8,7.4,8.6,7.4,7.6,8.1c-1,0.6-1.6,1.7-1.6,2.8L5.5,51.7  c0,3.6,0.5,7,1.5,10.3H4.1c-0.8,0-1.5,0.7-1.5,1.5S3.3,65,4.1,65H8c0.9,2.5,2.1,4.9,3.6,7.1L6,74.4c-0.8,0.3-1.1,1.2-0.8,2  C5.4,77,6,77.3,6.6,77.3c0.2,0,0.4,0,0.6-0.1l6.1-2.5c1.4,1.8,2.9,3.6,4.6,5.2l-5.4,5.4c-0.6,0.6-0.6,1.5,0,2.1  c0.3,0.3,0.7,0.4,1.1,0.4s0.8-0.1,1.1-0.4l5.5-5.5c7.9,6.6,18.4,10.6,30,10.6c11.5,0,21.9-4,29.9-10.5l5.4,5.4  c0.3,0.3,0.7,0.4,1.1,0.4s0.8-0.1,1.1-0.4c0.6-0.6,0.6-1.5,0-2.1L82.2,80c1.7-1.6,3.2-3.3,4.6-5.2l6,2.5c0.2,0.1,0.4,0.1,0.6,0.1  c0.6,0,1.1-0.3,1.4-0.9c0.3-0.8,0-1.6-0.8-2l-5.4-2.2c1.5-2.3,2.7-4.7,3.7-7.2h3.6c0.8,0,1.5-0.7,1.5-1.5S96.7,62,95.9,62z   M85.8,71.1L78.2,68c-0.8-0.3-1.6,0-2,0.8c-0.3,0.8,0,1.6,0.8,2l6.9,2.9c-1.2,1.5-2.5,2.9-3.9,4.2l-4.6-4.6c-0.6-0.6-1.5-0.6-2.1,0  c-0.6,0.6-0.6,1.5,0,2.1l4.5,4.5c-7.4,6-17.1,9.6-27.7,9.6c-10.7,0-20.5-3.7-27.8-9.7l4.4-4.4c0.6-0.6,0.6-1.5,0-2.1  c-0.6-0.6-1.5-0.6-2.1,0L20,77.8c-1.4-1.3-2.7-2.8-3.9-4.3l6.8-2.8c0.8-0.3,1.1-1.2,0.8-2c-0.3-0.8-1.2-1.1-2-0.8L14.3,71  c-1.2-1.9-2.3-3.9-3.2-6h10c0.8,0,1.5-0.7,1.5-1.5S22,62,21.2,62H10.1c-1-3.3-1.6-6.7-1.6-10.3L9,10.9c0-0.2,0.1-0.3,0.2-0.3  c0.1-0.1,0.2-0.1,0.4,0l25.6,11.8c0.8,0.3,1.6,0,2-0.7c0.3-0.8,0-1.6-0.7-2l-4.2-1.9c5.6-2.4,11.7-3.7,17.9-3.7  c6.2,0,12.3,1.3,17.9,3.7l-4.3,2c-0.8,0.3-1.1,1.2-0.7,2c0.3,0.8,1.2,1.1,2,0.7l25.6-11.8c0.2-0.1,0.3,0,0.4,0  c0.1,0.1,0.2,0.2,0.2,0.3l0.6,39.8h0l0,1c0,3.6-0.6,7-1.6,10.3H78.8c-0.8,0-1.5,0.7-1.5,1.5S78,65,78.8,65H89  C88.1,67.2,87.1,69.2,85.8,71.1z"/><path class="st0" d="M39.5,46.5c0.8-1,1.3-2.3,1-3.7c-0.3-1.8-1.9-3.3-3.7-3.5c-2.2-0.3-4.2,1-4.8,3c-0.6-2-2.6-3.3-4.8-3  c-1.8,0.3-3.4,1.7-3.7,3.5c-0.3,1.4,0.2,2.7,1,3.7l0,0L32,54L39.5,46.5L39.5,46.5z"/><path class="st0" d="M75.5,46.5c0.8-1,1.3-2.3,1-3.7c-0.3-1.8-1.9-3.3-3.7-3.5c-2.2-0.3-4.2,1-4.8,3c-0.6-2-2.6-3.3-4.8-3  c-1.8,0.3-3.4,1.7-3.7,3.5c-0.3,1.4,0.2,2.7,1,3.7l0,0l7.5,7.6L75.5,46.5L75.5,46.5z"/><path d="M50,77.2c-3.9,0-6.5-2.2-6.5-5.5c0-3.6,2.9-6.5,6.5-6.5s6.5,2.9,6.5,6.5C56.5,75,53.9,77.2,50,77.2z M50,68.2  c-1.9,0-3.5,1.6-3.5,3.5c0,2.1,1.9,2.5,3.5,2.5c1.6,0,3.5-0.4,3.5-2.5C53.5,69.8,51.9,68.2,50,68.2z"/></svg>
