<svg xmlns="http://www.w3.org/2000/svg" xmlns:xlink="http://www.w3.org/1999/xlink" version="1.1" preserveAspectRatio="none" x="0px" y="0px" viewBox="0 0 100 125" width="24px" height="24px"><defs><g id="a"><path fill="#000000" stroke="none" d=" M 87.2 49.3 Q 88.2 48.5 88.9 47.4 90.05 45.75 90 43.75 89.95 40.55 87.8 38.15 86.1 36.3 83.45 35.75 82.5 35.65 81.65 35.95 78.9 36.15 76.45 37.25 66.4 42.05 56.7 47.55 56 47.9 55.35 48.4 54.9 48.8 54.3 49.15 54.2 49.15 54.1 49.15 54.05 49.05 54.05 49 54 48.85 54.05 48.75 56.5 41.35 59 33.95 60.05 30.75 60.35 27.45 60.5 25.7 60.7 24 61.05 20.5 60.4 17.1 60 15.25 58.8 13.85 56.9 11.7 54.15 10.9 53.35 10.8 52.6 10.75 50.7 10.65 49.05 11.55 48.7 11.75 48.35 12 48 12.25 47.7 12.6 47 13.25 46.45 14 44.6 16.6 43.95 19.7 41.55 30.8 39.45 41.95 39.4 42.35 39.45 42.75 39.5 43.25 39.6 43.75 34.4 38.95 29 34.4 26.4 32.15 23.55 30.2 22.85 29.8 22.15 29.45 20.25 28.55 18.2 28.35 14.75 28.3 12.35 30.7 10.1 32.9 10.05 36.35 10.05 38.2 10.95 40.05 11.85 41.95 13.4 43.75 20.6 49.95 28.1 55.75 30 57.25 32.2 58.35 24.4 64.85 16.65 71.4 15.7 72.25 14.9 73.25 14.2 74.15 13.9 75.25 13.15 78 13.25 80.9 13.3 82.3 14.05 83.6 14.6 84.6 15.55 85.4 16.35 86.15 17.4 86.65 19.7 87.65 22.15 87.25 24.65 86.8 26.6 85.15 36 77.15 45.2 68.95 45.5 69.75 45.9 70.6 46.25 71.4 46.7 72.15 47.2 73.05 47.85 73.85 51.45 78.1 55.55 82 59.15 85.3 63.25 88.05 64.3 88.75 65.55 89 66.7 89.25 67.95 89.25 69.45 89.1 70.7 88.1 71.65 87.35 72.55 86.55 73.35 85.75 73.8 84.6 73.95 84.25 74.05 83.9 74.65 81.75 74.2 79.6 74 78.75 73.7 77.95 73.4 77.1 72.85 76.45 67.4 69.5 61.8 62.75 62.8 62.65 63.65 62.2 72.2 58.45 80.35 53.9 84 51.95 87.2 49.3 Z"/></g></defs><g transform="matrix( 1, 0, 0, 1, 0,0) "><use xlink:href="#a"/></g></svg>
