<?xml version="1.0" encoding="UTF-8" standalone="no"?>
<!-- Created with Inkscape (http://www.inkscape.org/) -->

<svg
   xmlns:dc="http://purl.org/dc/elements/1.1/"
   xmlns:cc="http://creativecommons.org/ns#"
   xmlns:rdf="http://www.w3.org/1999/02/22-rdf-syntax-ns#"
   xmlns:svg="http://www.w3.org/2000/svg"
   xmlns="http://www.w3.org/2000/svg"
   xmlns:sodipodi="http://sodipodi.sourceforge.net/DTD/sodipodi-0.dtd"
   xmlns:inkscape="http://www.inkscape.org/namespaces/inkscape"
   width="32"
   height="32"
   id="svg3545"
   version="1.1"
   inkscape:version="0.91 r13725"
   viewBox="0 0 32 32"
   sodipodi:docname="mute.svg">
  <defs
     id="defs3547" />
  <sodipodi:namedview
     id="base"
     pagecolor="#ffffff"
     bordercolor="#666666"
     borderopacity="1.0"
     inkscape:pageopacity="0.0"
     inkscape:pageshadow="2"
     inkscape:zoom="11.313708"
     inkscape:cx="17.512435"
     inkscape:cy="16.588708"
     inkscape:current-layer="layer1"
     showgrid="true"
     inkscape:grid-bbox="true"
     inkscape:document-units="px"
     inkscape:window-width="1366"
     inkscape:window-height="719"
     inkscape:window-x="39"
     inkscape:window-y="0"
     inkscape:window-maximized="0" />
  <metadata
     id="metadata3550">
    <rdf:RDF>
      <cc:Work
         rdf:about="">
        <dc:format>image/svg+xml</dc:format>
        <dc:type
           rdf:resource="http://purl.org/dc/dcmitype/StillImage" />
        <dc:title></dc:title>
      </cc:Work>
    </rdf:RDF>
  </metadata>
  <g
     id="layer1"
     inkscape:label="Layer 1"
     inkscape:groupmode="layer">
    <rect
       style="fill:none"
       id="rect3557"
       width="16.355055"
       height="15.344703"
       x="1.1366447"
       y="8.5724907" />
    <path
       transform="matrix(-0.99955893,-0.02969763,0.0346539,0.99939937,0,0)"
       d="M -0.47248731,25.899287 A 19.252056,10.193893 0 0 1 -18.4967,21.388602 19.252056,10.193893 0 0 1 -19.310183,10.841375 19.252056,10.193893 0 0 1 -2.0406295,5.5674974"
       sodipodi:end="4.733475"
       sodipodi:start="1.4680781"
       sodipodi:ry="10.193893"
       sodipodi:rx="19.252056"
       sodipodi:cy="15.759125"
       sodipodi:cx="-2.4465487"
       sodipodi:type="arc"
       id="path4369"
       style="fill:none;stroke:#000000;stroke-width:2.75710654;stroke-linecap:round;stroke-miterlimit:4;stroke-dasharray:none;stroke-opacity:1"
       sodipodi:open="true" />
    <path
       style="fill:none;stroke:#000000;stroke-width:0.61634195;stroke-linecap:round;stroke-miterlimit:4;stroke-dasharray:none;stroke-opacity:1"
       id="path4398"
       d="m 15.804237,10.518678 c -0.02755,0.0037 -0.05613,3.24e-4 -0.08272,0.01091 -0.09556,0.0379 -0.355514,0.243101 -0.269923,0.173912 1.097595,-0.8872888 0.666548,-0.529285 0.398864,-0.281985 -0.08759,0.08089 -0.174075,0.163962 -0.261112,0.245945 -0.606768,0.623939 -1.177604,1.310033 -1.762754,1.970969 -0.553737,0.637279 -1.098555,1.290983 -1.617425,1.980759 -0.520687,0.664532 -0.990084,1.39575 -1.448274,2.138998 -0.53181,0.824892 -1.0560073,1.658893 -1.5903521,2.480715 C 8.5817185,20.088288 8.0051443,20.953537 7.442928,21.835689 7.1202038,22.349104 6.7840303,22.84685 6.4447851,23.34009 6.178557,23.706434 5.899705,24.028075 5.6456663,24.412164 c -0.2706547,0.435743 -0.5384189,0.874564 -0.7896489,1.331447 -0.2403909,0.429648 -0.4737149,0.865783 -0.720578,1.288748 -0.2158976,0.395209 -0.4531172,0.765333 -0.7011715,1.123188 -0.2653796,0.355405 -0.5239447,0.719582 -0.7727234,1.096529 -0.2108389,0.331838 -0.4417209,0.637819 -0.6513108,0.971037 -0.1417872,0.264529 -0.2982987,0.508893 -0.4814663,0.721545 -0.1008534,0.106064 -0.050784,0.05668 -0.1498101,0.148848 0,0 -0.91037467,0.47965 -0.91037467,0.47965 l 0,0 c 0.10726693,-0.08069 0.0535175,-0.03549 0.1605978,-0.137039 C 0.82199246,31.239042 0.98754951,31.003071 1.1251374,30.733251 1.3369178,30.394658 1.5689576,30.0843 1.786699,29.752981 2.033961,29.37604 2.287484,29.006513 2.5546346,28.655382 2.8038582,28.297423 3.0515191,27.938166 3.2652054,27.53823 3.5153231,27.117642 3.7475591,26.68029 3.9902358,26.252204 4.2386688,25.791555 4.5084144,25.35488 4.7738762,24.91242 4.8255668,24.830845 4.967399,24.604115 5.0249087,24.524748 5.2000612,24.28302 5.406813,24.085745 5.5754133,23.834152 5.9258089,23.333799 6.2724511,22.828195 6.6110496,22.313082 7.1873192,21.43568 7.7691506,20.564653 8.3591691,19.704359 8.8885134,18.88689 9.4049382,18.053964 9.9341896,17.236277 10.388214,16.488813 10.854364,15.75413 11.374165,15.088725 c 0.519744,-0.69847 1.069339,-1.355773 1.627048,-1.997278 0.580964,-0.653315 1.146239,-1.332031 1.737437,-1.967759 0.151569,-0.146944 0.294828,-0.311108 0.454443,-0.441316 0.330222,-0.269392 0.66476,-0.529014 1.001071,-0.7840867 0.09729,-0.073788 0.201989,-0.1298843 0.311476,-0.1585748 0.03198,-0.0084 0.06492,-0.00713 0.09734,-0.010779 0,0 -0.798773,0.7898615 -0.798773,0.7898615 z"
       inkscape:connector-curvature="0" />
    <path
       inkscape:connector-curvature="0"
       d="m 16.859566,21.383595 c -0.02961,-0.0036 -0.06024,-3.23e-4 -0.08882,-0.01085 -0.102607,-0.03773 -0.381713,-0.242083 -0.289818,-0.173191 1.178476,0.883573 0.715667,0.527065 0.428258,0.280802 -0.09405,-0.08059 -0.186897,-0.16327 -0.28035,-0.244914 C 15.977375,20.614061 15.364473,19.930839 14.736209,19.27267 14.141668,18.638049 13.556701,17.987083 12.999604,17.300196 12.440538,16.638444 11.93656,15.910288 11.444602,15.170151 10.873613,14.348766 10.310788,13.518256 9.7370666,12.699873 9.1048584,11.854044 8.485796,10.992416 7.8821553,10.113957 7.535654,9.60273 7.1747073,9.107066 6.810466,8.6158925 6.5246195,8.2510836 6.2252188,7.9307866 5.9524636,7.5483068 5.6618646,7.1143847 5.3743709,6.6773986 5.1046263,6.2224278 4.8465226,5.7945786 4.5960082,5.3602687 4.33095,4.9390748 4.0991452,4.5455197 3.8444466,4.1769469 3.5781128,3.8205876 3.2931802,3.4666715 3.015561,3.1040181 2.7484497,2.728648 2.5220771,2.3982016 2.2741794,2.093498 2.0491459,1.7616764 1.8969032,1.4982521 1.7288653,1.2549124 1.5322025,1.0431486 1.423918,0.93753244 1.4776657,0.986706 1.3713463,0.89493358 c 0,0 -0.97745789,-0.4776431 -0.97745789,-0.4776431 l 0,0 C 0.5090564,0.49765581 0.45134737,0.45263163 0.56631992,0.5537577 0.77333952,0.74999972 0.95109575,0.98498898 1.0988221,1.2536821 1.3262085,1.5908578 1.5753469,1.8999158 1.8091324,2.2298527 2.0746142,2.6052141 2.3468189,2.9731916 2.633657,3.3228556 2.9012427,3.6793152 3.1671546,4.0370694 3.3965869,4.4353302 3.6651349,4.8541575 3.9144843,5.2896808 4.175041,5.7159729 4.4417812,6.1746941 4.7314028,6.609543 5.0164269,7.05015 5.0719325,7.131368 5.2242126,7.3571655 5.2859575,7.4362039 5.4740158,7.6769199 5.6960044,7.8733663 5.87703,8.1239052 6.253243,8.622164 6.6254273,9.1256504 6.9889778,9.638611 c 0.6187335,0.87373 1.2434363,1.741108 1.8769313,2.597806 0.568354,0.814042 1.1228271,1.643478 1.6910779,2.457748 0.487481,0.744336 0.987982,1.475942 1.546086,2.138566 0.558045,0.695542 1.14813,1.350097 1.746941,1.988915 0.623775,0.650581 1.230703,1.326454 1.865464,1.959519 0.162735,0.14633 0.316555,0.309812 0.48793,0.439471 0.354559,0.268267 0.713745,0.526801 1.074836,0.780809 0.104463,0.07349 0.216871,0.129339 0.334428,0.1579 0.03433,0.0083 0.06967,0.0072 0.104542,0.01085 0,0 -0.857635,-0.786553 -0.857635,-0.786553 z"
       id="path4408"
       style="fill:none;stroke:#000000;stroke-width:0.63730878;stroke-linecap:round;stroke-miterlimit:4;stroke-dasharray:none;stroke-opacity:1" />
  </g>
</svg>
